<svg id="Layer_1" data-name="Layer 1" xmlns="http://www.w3.org/2000/svg" xmlns:xlink="http://www.w3.org/1999/xlink" viewBox="0 0 333.61 106.57"><defs><style>.cls-1{fill:url(#linear-gradient);}.cls-2{fill:url(#linear-gradient-2);}.cls-3{fill:url(#linear-gradient-3);}</style><linearGradient id="linear-gradient" x1="260.24" y1="60.64" x2="361.84" y2="60.64" gradientTransform="translate(-35.37 29.09) rotate(-7.02)" gradientUnits="userSpaceOnUse"><stop offset="0" stop-color="#faae42"/><stop offset="1" stop-color="#f15c2c"/></linearGradient><linearGradient id="linear-gradient-2" x1="307.64" y1="106" x2="327.43" y2="51.51" xlink:href="#linear-gradient"/><linearGradient id="linear-gradient-3" y1="52.8" x2="246.24" y2="52.8" gradientUnits="userSpaceOnUse"><stop offset="0" stop-color="#faae42"/><stop offset="0.65" stop-color="#f68e35"/><stop offset="1" stop-color="#f47b2d"/></linearGradient></defs><path class="cls-1" d="M280.39,0c-.88,2.49-44.61,106.47-44,106.4S295.19,67,295.19,67l-42.7,21.29L281.58,8.8l41.94,53.76-75.63,44,85.72-41.71Z"/><polygon class="cls-2" points="281.58 8.8 252.49 88.31 295.19 67.02 263.72 77.24 283.58 19.45 315.32 62.95 247.89 106.57 323.52 62.56 281.58 8.8"/><path class="cls-3" d="M31.25,63.45a25.71,25.71,0,0,1-1.8,2.09,17,17,0,0,1-12.17,5A17.2,17.2,0,0,1,5,65.54,17.38,17.38,0,0,1,5,41.06a17.2,17.2,0,0,1,12.24-5,17,17,0,0,1,12.17,5,15.55,15.55,0,0,1,1.73,2l-5,3.67a11.1,11.1,0,1,0-8.93,17.71,11,11,0,0,0,8.93-4.68ZM69.19,53.3A17.33,17.33,0,0,1,51.91,70.58a17.25,17.25,0,1,1,0-34.49A17.21,17.21,0,0,1,69.19,53.3ZM63,53.3A11.09,11.09,0,1,0,51.91,64.39,11,11,0,0,0,63,53.3Zm45.65,0A17.33,17.33,0,0,1,91.37,70.58a17.25,17.25,0,1,1,0-34.49A17.21,17.21,0,0,1,108.65,53.3Zm-6.19,0A11.09,11.09,0,1,0,91.37,64.39,11,11,0,0,0,102.46,53.3ZM147,69.79h-7.84l-12.1-16.7-5.69,5.32V69.79H115.2V16.94h6.19V50.13l14.33-13.32h8.86l-12.82,12Zm28.3-33h6.19v33h-6.19V66c-3.1,2.6-7,4.54-11.09,4.54a17.21,17.21,0,1,1,0-34.42c4.1,0,8,1.95,11.09,4.54Zm0,16.49a11.09,11.09,0,1,0-11.09,11.16A11.16,11.16,0,0,0,175.32,53.3ZM196.7,40.2c2.09-2.31,8.21-4.11,12-4.11l-1.52,6.19c-5.76,0-10.51,4.4-10.51,9.94V69.79h-6.19v-33h6.19Zm28.51,48.46h-6.69l7.7-18.87-13.39-33h6.69l10,24.77,10-24.77h6.7Z"/></svg>